#!OML:ASF G:\JayActor3\Patient Classification 1\Patient 1\Session 6\male.ASF
:FULLY-SPECIFIED
:DEGREES
1152
root 18.3861 15.6124 -7.63793 18.9513 -59.434 -5.35425
lowerback 22.6057 -1.61947 3.79765
upperback 15.8856 -2.45212 -0.141856
thorax 4.81195 -1.30986 -1.88753
lowerneck 6.33371 1.13358 4.29285
upperneck -9.24322 1.81664 -1.35589
head -4.12187 0.79929 -1.31972
rclavicle 1.23246e-014 -1.17283e-014
rhumerus -9.25042 18.8124 -90.3599
rradius 86.5632
rwrist 13.4264
rhand -27.8831 -6.70261
rfingers 7.12502
rthumb -1.27303 -36.6786
lclavicle 1.23246e-014 -1.17283e-014
lhumerus -11.5429 -9.14763 87.8737
lradius 84.0163
lwrist 2.90442
lhand -29.2476 6.86398
lfingers 7.12502
lthumb -2.5908 36.828
rfemur -49.4817 1.48061 25.8216
rtibia 52.6353
rfoot -19.7523 -10.5709
rtoes 6.05942
lfemur -43.7698 6.36325 -20.2543
ltibia 49.6337
lfoot -19.9781 4.19909
ltoes 0.413105
1153
root 18.3752 15.614 -7.62566 19.0114 -59.453 -5.3525
lowerback 22.6083 -1.61684 3.77218
upperback 15.8782 -2.45207 -0.144043
thorax 4.80233 -1.3118 -1.87527
lowerneck 6.32789 1.14491 4.28778
upperneck -9.24319 1.8323 -1.34391
head -4.12025 0.806634 -1.31549
rclavicle -4.29375e-014 4.39314e-014
rhumerus -9.25138 18.8315 -90.3592
rradius 86.5581
rwrist 13.4174
rhand -27.8606 -6.69654
rfingers 7.12502
rthumb -1.2513 -36.6726
lclavicle -4.29375e-014 4.39314e-014
lhumerus -11.5744 -9.12512 87.8661
lradius 84.043
lwrist 2.89344
lhand -29.2399 6.86247
lfingers 7.12502
lthumb -2.5834 36.8266
rfemur -49.4948 1.48238 25.8021
rtibia 52.6545
rfoot -19.7901 -10.5668
rtoes 5.98806
lfemur -43.7615 6.3618 -20.2793
ltibia 49.626
lfoot -20.0376 4.21521
ltoes 0.421686
1154
root 18.3641 15.6155 -7.61356 19.0666 -59.4741 -5.34762
lowerback 22.6125 -1.60976 3.75382
upperback 15.8732 -2.4454 -0.149921
thorax 4.79476 -1.30962 -1.87222
lowerneck 6.31424 1.14811 4.28733
upperneck -9.23951 1.83751 -1.32721
head -4.11611 0.808421 -1.30976
rclavicle -3.57812e-014 3.39922e-014
rhumerus -9.25411 18.8247 -90.3616
rradius 86.561
rwrist 13.4131
rhand -27.8412 -6.68833
rfingers 7.12502
rthumb -1.23256 -36.6645
lclavicle -3.57812e-014 3.39922e-014
lhumerus -11.5944 -9.12588 87.8557
lradius 84.0585
lwrist 2.87959
lhand -29.2398 6.86427
lfingers 7.12502
lthumb -2.58329 36.8284
rfemur -49.5067 1.4866 25.7809
rtibia 52.6767
rfoot -19.8299 -10.561
rtoes 5.9276
lfemur -43.7518 6.36764 -20.3073
ltibia 49.6198
lfoot -20.0958 4.23044
ltoes 0.409635
1155
root 18.353 15.6168 -7.60151 19.1211 -59.4943 -5.34589
lowerback 22.6205 -1.60492 3.73591
upperback 15.8695 -2.44156 -0.157164
thorax 4.78677 -1.30883 -1.8703
lowerneck 6.30159 1.15087 4.2877
upperneck -9.23533 1.84201 -1.31285
head -4.11201 0.809958 -1.30495
rclavicle 6.0033e-014 3.57812e-015
rhumerus -9.25917 18.8171 -90.3715
rradius 86.5692
rwrist 13.4137
rhand -27.8326 -6.67697
rfingers 7.12502
rthumb -1.22425 -36.6532
lclavicle 6.0033e-014 3.57812e-015
lhumerus -11.6079 -9.12201 87.8435
lradius 84.0634
lwrist 2.86328
lhand -29.2507 6.86336
lfingers 7.12502
lthumb -2.59382 36.8273
rfemur -49.5151 1.49085 25.7621
rtibia 52.7002
rfoot -19.8712 -10.5544
rtoes 5.8696
lfemur -43.7405 6.37656 -20.3335
ltibia 49.6166
lfoot -20.1542 4.24269
ltoes 0.392554
1156
root 18.3417 15.618 -7.58957 19.1836 -59.5116 -5.35583
lowerback 22.6313 -1.60207 3.72517
upperback 15.8668 -2.43918 -0.162652
thorax 4.77847 -1.30835 -1.87019
lowerneck 6.2884 1.15196 4.27986
upperneck -9.23255 1.84358 -1.29672
head -4.10843 0.810234 -1.29792
rclavicle -5.20816e-014 -1.43125e-014
rhumerus -9.26394 18.809 -90.382
rradius 86.5823
rwrist 13.411
rhand -27.8346 -6.66942
rfingers 7.12502
rthumb -1.22613 -36.6456
lclavicle -5.20816e-014 -1.43125e-014
lhumerus -11.6132 -9.1171 87.8346
lradius 84.056
lwrist 2.84642
lhand -29.2739 6.85361
lfingers 7.12502
lthumb -2.61619 36.8173
rfemur -49.5212 1.49662 25.7502
rtibia 52.7238
rfoot -19.915 -10.5491
rtoes 5.82004
lfemur -43.7301 6.38897 -20.3531
ltibia 49.617
lfoot -20.2128 4.2537
ltoes 0.361141
1157
root 18.3305 15.6188 -7.57767 19.2549 -59.5246 -5.37718
lowerback 22.6432 -1.60127 3.7198
upperback 15.8643 -2.43854 -0.166244
thorax 4.76979 -1.30845 -1.8707
lowerneck 6.28184 1.1519 4.27107
upperneck -9.23497 1.84369 -1.28193
head -4.1081 0.809815 -1.29128
rclavicle -8.34896e-015 5.68524e-014
rhumerus -9.27186 18.8011 -90.3957
rradius 86.6014
rwrist 13.4077
rhand -27.8404 -6.66275
rfingers 7.12502
rthumb -1.23174 -36.6389
lclavicle -8.34896e-015 5.68524e-014
lhumerus -11.6165 -9.11224 87.8254
lradius 84.0424
lwrist 2.83821
lhand -29.3064 6.83503
lfingers 7.12502
lthumb -2.6476 36.7983
rfemur -49.5258 1.50217 25.7455
rtibia 52.7468
rfoot -19.9624 -10.5458
rtoes 5.77577
lfemur -43.7225 6.40051 -20.3659
ltibia 49.621
lfoot -20.2716 4.2661
ltoes 0.318735
1158
root 18.3191 15.6196 -7.56585 19.3283 -59.5314 -5.40332
lowerback 22.6555 -1.60123 3.71913
upperback 15.8626 -2.43813 -0.168169
thorax 4.76179 -1.30838 -1.87203
lowerneck 6.28358 1.14899 4.26748
upperneck -9.24368 1.8405 -1.27123
head -4.11175 0.807679 -1.287
rclavicle -3.69739e-014 -6.16232e-015
rhumerus -9.28016 18.7885 -90.4102
rradius 86.6228
rwrist 13.4039
rhand -27.8435 -6.66099
rfingers 7.12502
rthumb -1.2348 -36.6372
lclavicle -3.69739e-014 -6.16232e-015
lhumerus -11.6164 -9.11238 87.8171
lradius 84.022
lwrist 2.8374
lhand -29.3439 6.80567
lfingers 7.12502
lthumb -2.6838 36.7685
rfemur -49.5277 1.50501 25.7453
rtibia 52.7689
rfoot -20.0137 -10.5469
rtoes 5.72656
lfemur -43.7146 6.40932 -20.3737
ltibia 49.6273
lfoot -20.334 4.27127
ltoes 0.292141
1159
root 18.3074 15.6203 -7.5541 19.4065 -59.5318 -5.43653
lowerback 22.6664 -1.60252 3.7192
upperback 15.8626 -2.43958 -0.163412
thorax 4.75669 -1.30956 -1.86633
lowerneck 6.28673 1.14611 4.25164
upperneck -9.25579 1.83628 -1.25959
head -4.11698 0.805389 -1.28022
rclavicle -3.1408e-014 6.95746e-015
rhumerus -9.28494 18.7854 -90.4149
rradius 86.6449
rwrist 13.3928
rhand -27.8394 -6.67056
rfingers 7.12502
rthumb -1.23079 -36.6468
lclavicle -3.1408e-014 6.95746e-015
lhumerus -11.6107 -9.10655 87.8191
lradius 83.9952
lwrist 2.83919
lhand -29.3787 6.76993
lfingers 7.12502
lthumb -2.71741 36.7324
rfemur -49.527 1.50431 25.7512
rtibia 52.7903
rfoot -20.0704 -10.5506
rtoes 5.67506
lfemur -43.7064 6.41464 -20.3755
ltibia 49.6351
lfoot -20.4008 4.27304
ltoes 0.277892
1160
root 18.2955 15.6208 -7.54247 19.4857 -59.5247 -5.47158
lowerback 22.6751 -1.60573 3.71826
upperback 15.8629 -2.44367 -0.154993
thorax 4.75297 -1.31231 -1.85569
lowerneck 6.29772 1.14317 4.23751
upperneck -9.27299 1.83208 -1.2529
head -4.12557 0.803218 -1.27561
rclavicle -9.14409e-015 -3.37934e-014
rhumerus -9.28949 18.7896 -90.4164
rradius 86.6661
rwrist 13.3859
rhand -27.8272 -6.6867
rfingers 7.12502
rthumb -1.21902 -36.663
lclavicle -9.14409e-015 -3.37934e-014
lhumerus -11.6038 -9.09741 87.8259
lradius 83.9657
lwrist 2.84538
lhand -29.4114 6.72829
lfingers 7.12502
lthumb -2.74907 36.6903
rfemur -49.524 1.49991 25.7604
rtibia 52.8111
rfoot -20.132 -10.5603
rtoes 5.60641
lfemur -43.6976 6.41328 -20.3723
ltibia 49.6441
lfoot -20.4727 4.27008
ltoes 0.28324
1161
root 18.2833 15.6213 -7.53094 19.5694 -59.5094 -5.51142
lowerback 22.6807 -1.60929 3.72417
upperback 15.8641 -2.44719 -0.144349
thorax 4.75181 -1.31426 -1.84674
lowerneck 6.30947 1.13783 4.2264
upperneck -9.29 1.82486 -1.24724
head -4.13434 0.799503 -1.27174
rclavicle -4.37326e-014 6.95746e-015
rhumerus -9.2919 18.7898 -90.4146
rradius 86.6841
rwrist 13.3814
rhand -27.8116 -6.70875
rfingers 7.12502
rthumb -1.20399 -36.6851
lclavicle -4.37326e-014 6.95746e-015
lhumerus -11.5935 -9.09369 87.8366
lradius 83.9344
lwrist 2.84952
lhand -29.4377 6.6883
lfingers 7.12502
lthumb -2.77443 36.65
rfemur -49.5197 1.49176 25.7744
rtibia 52.8317
rfoot -20.1987 -10.5741
rtoes 5.52199
lfemur -43.69 6.40638 -20.3633
ltibia 49.6543
lfoot -20.5488 4.26505
ltoes 0.296344
1162
root 18.2709 15.6216 -7.51948 19.6586 -59.4898 -5.55535
lowerback 22.6824 -1.61141 3.73961
upperback 15.865 -2.44732 -0.133561
thorax 4.75228 -1.31365 -1.84371
lowerneck 6.32308 1.12887 4.22201
upperneck -9.30704 1.81346 -1.24216
head -4.1436 0.793492 -1.26908
rclavicle -8.74653e-015 -1.43125e-014
rhumerus -9.29591 18.7788 -90.4116
rradius 86.6999
rwrist 13.3829
rhand -27.8039 -6.73266
rfingers 7.12502
rthumb -1.19652 -36.709
lclavicle -8.74653e-015 -1.43125e-014
lhumerus -11.5808 -9.10364 87.8516
lradius 83.9032
lwrist 2.85334
lhand -29.4649 6.66003
lfingers 7.12502
lthumb -2.80067 36.6214
rfemur -49.5172 1.48079 25.7919
rtibia 52.8533
rfoot -20.2675 -10.5896
rtoes 5.42072
lfemur -43.6857 6.3948 -20.3502
ltibia 49.6666
lfoot -20.6277 4.26432
ltoes 0.299111
1163
root 18.2584 15.6219 -7.50804 19.7515 -59.4676 -5.60108
lowerback 22.6832 -1.61822 3.75256
upperback 15.8652 -2.4538 -0.120255
thorax 4.75222 -1.31658 -1.83542
lowerneck 6.33912 1.12576 4.20558
upperneck -9.32456 1.80875 -1.23857
head -4.15334 0.791327 -1.26515
rclavicle -8.34896e-015 5.96354e-015
rhumerus -9.29802 18.786 -90.4051
rradius 86.7101
rwrist 13.3892
rhand -27.8044 -6.75149
rfingers 7.12502
rthumb -1.19701 -36.7279
lclavicle -8.34896e-015 5.96354e-015
lhumerus -11.5709 -9.09638 87.8716
lradius 83.8781
lwrist 2.85387
lhand -29.4864 6.64213
lfingers 7.12502
lthumb -2.8215 36.6032
rfemur -49.5179 1.46756 25.8107
rtibia 52.877
rfoot -20.3369 -10.6042
rtoes 5.30998
lfemur -43.6851 6.37793 -20.3349
ltibia 49.6811
lfoot -20.7084 4.27181
ltoes 0.287018
1164
root 18.2458 15.6219 -7.49672 19.8433 -59.4484 -5.64324
lowerback 22.6813 -1.62214 3.76599
upperback 15.8666 -2.45677 -0.107494
thorax 4.75499 -1.31762 -1.82875
lowerneck 6.35239 1.12167 4.18856
upperneck -9.34262 1.80245 -1.23554
head -4.16276 0.78841 -1.26119
rclavicle 4.6118e-014 -1.2921e-014
rhumerus -9.29736 18.788 -90.3944
rradius 86.7164
rwrist 13.4007
rhand -27.8094 -6.77175
rfingers 7.12502
rthumb -1.20182 -36.7481
lclavicle 4.6118e-014 -1.2921e-014
lhumerus -11.5548 -9.09388 87.8961
lradius 83.8539
lwrist 2.84841
lhand -29.5037 6.6373
lfingers 7.12502
lthumb -2.83817 36.5982
rfemur -49.5242 1.45671 25.827
rtibia 52.9048
rfoot -20.4059 -10.6212
rtoes 5.17779
lfemur -43.6875 6.36064 -20.3218
ltibia 49.6977
lfoot -20.7922 4.28709
ltoes 0.260657
